# xmcd
#
# Track frame offsets:
#	150
#	16980
#	31407
#	48944
#	66885
#	79815
#	96054
#	115629
#	129799
#	144972
#	163459
#	176235
#	191362
#	208627
#	223442
#
# Disc length: 3192 seconds
#
# Revision: 6
# Processed by: cddbd v1.5.2PL0 Copyright (c) Steve Scherf et al.
# Submitted via: EasyCDDAExtractor 15.3.0.1
#
DISCID=d20c760f
DTITLE=Britney Spears - Circus (Deluxe Edition)
DYEAR=2008
DGENRE=Pop
TTITLE0=Womanizer
TTITLE1=Circus
TTITLE2=Out From Under
TTITLE3=Kill The Lights
TTITLE4=Shattered Glass
TTITLE5=If U Seek Amy
TTITLE6=Unusual You
TTITLE7=Blur
TTITLE8=Mmm Papi
TTITLE9=Mannequin
TTITLE10=Lace And Leather
TTITLE11=My Baby
TTITLE12=Radar (Bonus Track)
TTITLE13=Rock Me In (Bonus Track)
TTITLE14=Phonography (Bonus Track)
EXTD=
EXTT0=
EXTT1=
EXTT2=
EXTT3=
EXTT4=
EXTT5=
EXTT6=
EXTT7=
EXTT8=
EXTT9=
EXTT10=
EXTT11=
EXTT12=
EXTT13=
EXTT14=
PLAYORDER=
